<svg id="Logo" xmlns="http://www.w3.org/2000/svg" viewBox="0 0 600 400"><defs><style>.cls-1{fill:#ff721f;}.cls-2{fill:#ffe18a;}</style></defs><rect class="cls-1" x="-0.75" y="-0.5" width="601.5" height="401"/><path d="M159.86,256.65a12.6,12.6,0,0,0-4.42-3.15,14.78,14.78,0,0,0-1.79-.54c-2.08-.55-4.23-1.11-4.16-3.39a2.88,2.88,0,0,1,1.12-2.16,4.09,4.09,0,0,1,4.31-.2,4.28,4.28,0,0,0,5.84-1.44,4.37,4.37,0,0,0-1.55-5.88,14.45,14.45,0,0,0-7.29-1.71,12.3,12.3,0,0,0-7.85,3.65,11.42,11.42,0,0,0-3.2,8.19,10.9,10.9,0,0,0,3.64,7.52,12.31,12.31,0,0,0,4.3,2.81,11.19,11.19,0,0,0,1.75.57,6.85,6.85,0,0,1,2.39.93,3.33,3.33,0,0,1,1.33,3.06,3.26,3.26,0,0,1-1.92,2.72,5.79,5.79,0,0,1-5.35-.48,4.24,4.24,0,0,0-5.89,1.14,4.08,4.08,0,0,0-.68,3.11,4.32,4.32,0,0,0,1.82,2.78,16.06,16.06,0,0,0,8.27,2.48l.37,0,.34,0a12.49,12.49,0,0,0,8.23-3.7,11.82,11.82,0,0,0,.39-16.25Z"/><path d="M179.23,258a4.54,4.54,0,0,1,2.91,1,4.67,4.67,0,0,0,2.73,1,4.57,4.57,0,0,0,3.59-1.77,4.52,4.52,0,0,0-.85-6.27,11.6,11.6,0,0,0-3.86-2.1,14.12,14.12,0,0,0-4.52-.77,12.39,12.39,0,0,0-5.35,1.11,14,14,0,0,0-4.42,2.92,13.37,13.37,0,0,0-4,9.76,14.94,14.94,0,0,0,1.05,5.41,14.38,14.38,0,0,0,3,4.35,14.07,14.07,0,0,0,4.41,3,14,14,0,0,0,13.73-1.77,4.5,4.5,0,0,0,1.71-3,4.4,4.4,0,0,0-.91-3.27,4.32,4.32,0,0,0-2.95-1.73,4.52,4.52,0,0,0-3.33.88,4.48,4.48,0,0,1-2.9,1,4.79,4.79,0,0,1-4.84-4.83A4.84,4.84,0,0,1,179.23,258Z"/><path d="M204.83,249a11.85,11.85,0,0,0-3.15.42v-4.6a4.48,4.48,0,1,0-9,0V272.1a4.48,4.48,0,1,0,9,0v-11a3.15,3.15,0,0,1,6.3,0v11a4.48,4.48,0,1,0,9,0v-11a11.68,11.68,0,0,0-3.59-8.57A12,12,0,0,0,204.83,249Z"/><path d="M233,249a12.42,12.42,0,0,0-5.33,1.2,4,4,0,0,0-2.81-1.15,4,4,0,0,0-4,4V272.1a4.48,4.48,0,1,0,9,0v-11a3.15,3.15,0,1,1,6.3,0v11a4.48,4.48,0,1,0,9,0v-11A12.15,12.15,0,0,0,233,249Z"/><path d="M271.37,249a4.15,4.15,0,0,0-3.21,1.62,14.08,14.08,0,0,0-6.62-1.67,13.79,13.79,0,1,0,6.56,25.9,4.07,4.07,0,0,0,3.27,1.67,4,4,0,0,0,4-4V253A4,4,0,0,0,271.37,249ZM265,266.19a4.9,4.9,0,0,1-6.87,0,4.85,4.85,0,0,1,6.86-6.87,4.89,4.89,0,0,1,0,6.86Z"/><path d="M293.08,248.92a14.33,14.33,0,0,0-6.6,1.67,4,4,0,0,0-7.24,2.29v27.8a4.53,4.53,0,0,0,9.06,0v-4.95a13.18,13.18,0,0,0,4.78.87,13.84,13.84,0,1,0,0-27.68Zm3.43,17.28a4.89,4.89,0,0,1-6.86,0,4.7,4.7,0,0,1-1.46-3.43,4.91,4.91,0,0,1,1.46-3.48,4.9,4.9,0,0,1,6.86,0,4.91,4.91,0,0,1,1.46,3.48A4.74,4.74,0,0,1,296.51,266.2Z"/><path d="M323.86,248.92a14.33,14.33,0,0,0-6.6,1.67,4,4,0,0,0-7.24,2.29v27.8a4.53,4.53,0,0,0,9.06,0v-4.95a13.18,13.18,0,0,0,4.78.87,13.84,13.84,0,0,0,0-27.68Zm3.43,17.28a4.89,4.89,0,0,1-6.86,0,4.69,4.69,0,0,1-1.45-3.43,4.9,4.9,0,0,1,1.45-3.48,4.9,4.9,0,0,1,6.86,0,4.91,4.91,0,0,1,1.46,3.48A4.74,4.74,0,0,1,327.29,266.2Z"/><path d="M361.51,252a13.21,13.21,0,0,0-8.66-3,12.92,12.92,0,0,0-5.24,1,13.86,13.86,0,0,0-4.25,3,15.69,15.69,0,0,0-2.81,4.35,13.63,13.63,0,0,0-1.1,5.35v.43a12.32,12.32,0,0,0,1.15,5.3,12.81,12.81,0,0,0,2.88,4.3,13.87,13.87,0,0,0,9.81,3.86,15,15,0,0,0,8.59-2.64,4.13,4.13,0,0,0,1-5.51,4.08,4.08,0,0,0-2.64-1.68,3.58,3.58,0,0,0-2.71.65,7.7,7.7,0,0,1-4.27,1.26,6.42,6.42,0,0,1-4.48-1.68,4.46,4.46,0,0,1-1.12-1.52h13.52l.17,0a2.42,2.42,0,0,0,.66,0l.23,0a4.28,4.28,0,0,0,2.93-1.68,4.41,4.41,0,0,0,.89-3.33A12.74,12.74,0,0,0,361.51,252Zm-4.8,7.06h-8.77a5.05,5.05,0,0,1,4.91-2.94,5,5,0,0,1,4.82,2.94Z"/><path d="M381.93,249.09a2.14,2.14,0,0,0-.63-.06,12.25,12.25,0,0,0-5.27,1.2,4,4,0,0,0-6.78,2.82V272.1a4.48,4.48,0,1,0,8.95,0v-11a3.1,3.1,0,0,1,3.1-3.1h.38a4.49,4.49,0,0,0,4.5-4.28h0A4.49,4.49,0,0,0,381.93,249.09Z"/><path d="M395.6,234.15a4.1,4.1,0,1,0,4.12,4.07A4.12,4.12,0,0,0,395.6,234.15Z"/><path d="M395.1,249a4.51,4.51,0,0,0-4.5,4.5V272.1a4.48,4.48,0,1,0,8.95,0V253.48A4.48,4.48,0,0,0,395.1,249Z"/><path d="M417.05,249a12.41,12.41,0,0,0-5.32,1.2,4.07,4.07,0,0,0-2.82-1.15,4,4,0,0,0-4,4V272.1a4.48,4.48,0,1,0,8.95,0v-11a3.16,3.16,0,1,1,6.31,0v11a4.48,4.48,0,1,0,9,0v-11A12.17,12.17,0,0,0,417.05,249Z"/><path d="M445.85,249a13.79,13.79,0,1,0,13.78,13.79A13.8,13.8,0,0,0,445.85,249Zm3.43,17.22a4.91,4.91,0,0,1-6.87,0,4.77,4.77,0,0,1-1.4-3.43,4.65,4.65,0,0,1,1.4-3.43h0a4.77,4.77,0,0,1,6.87,0,4.87,4.87,0,0,1,1.4,3.43A5,5,0,0,1,449.28,266.25Z"/><path d="M242.63,297c-2.06-.78-2.66-1.28-2.66-2.2s.69-1.56,2.21-1.56a6,6,0,0,1,2.81.67.2.2,0,0,0,.15,0,.2.2,0,0,0,.11-.11l.63-2.13a.2.2,0,0,0-.09-.22,7.9,7.9,0,0,0-3.55-.73c-3.12,0-5.3,1.78-5.3,4.33,0,2,1.32,3.41,4,4.37,1.79.65,2.45,1.26,2.45,2.24s-.92,1.79-2.45,1.79a7.06,7.06,0,0,1-3.41-.9.22.22,0,0,0-.16,0,.17.17,0,0,0-.1.12l-.59,2.19a.18.18,0,0,0,.08.2,8.47,8.47,0,0,0,4,1c4.18,0,5.66-2.44,5.66-4.53S245.28,298,242.63,297Z"/><path d="M256.47,295.2a7.13,7.13,0,0,0-2.63-.49c-3.58,0-6,2.31-6,5.74a5.2,5.2,0,0,0,5.57,5.53,7.58,7.58,0,0,0,3-.56.18.18,0,0,0,.1-.2l-.35-2a.19.19,0,0,0-.09-.12.18.18,0,0,0-.16,0,5,5,0,0,1-2,.4,3,3,0,0,1-3-3.2,3.3,3.3,0,0,1,.88-2.38,2.94,2.94,0,0,1,2.14-.82,4.35,4.35,0,0,1,1.92.39.18.18,0,0,0,.25-.12l.47-2A.19.19,0,0,0,256.47,295.2Z"/><path d="M264.14,294.71a3.92,3.92,0,0,0-3,1.36v-5.74a.18.18,0,0,0-.18-.18h-2.64a.18.18,0,0,0-.18.18v15.24a.18.18,0,0,0,.18.18H261a.18.18,0,0,0,.18-.18v-6.25a2.09,2.09,0,0,1,.1-.74,2,2,0,0,1,1.88-1.36c1.51,0,1.83,1.35,1.83,2.49v5.86a.18.18,0,0,0,.18.18h2.65a.18.18,0,0,0,.17-.18v-6.15C268,295.94,266,294.71,264.14,294.71Z"/><path d="M276.36,294.71a4.06,4.06,0,0,0-3.25,1.54l-.09-1.14a.18.18,0,0,0-.18-.17h-2.31a.16.16,0,0,0-.13.06.15.15,0,0,0,0,.13c0,.76.08,1.8.08,3.1v7.34a.18.18,0,0,0,.18.18h2.65a.18.18,0,0,0,.18-.18v-6.15a2.44,2.44,0,0,1,.11-.78,2,2,0,0,1,1.88-1.43c1.5,0,1.82,1.34,1.82,2.47v5.89a.18.18,0,0,0,.18.18h2.64a.18.18,0,0,0,.18-.18v-6.21C280.25,295.93,278.24,294.71,276.36,294.71Z"/><path d="M291.17,303.05v-3.76c0-2.09-.78-4.58-4.49-4.58a7.76,7.76,0,0,0-3.88,1,.19.19,0,0,0-.08.21l.53,1.71a.16.16,0,0,0,.11.12.16.16,0,0,0,.15,0,5.43,5.43,0,0,1,2.72-.75h0a2.07,2.07,0,0,1,1.51.48,1.62,1.62,0,0,1,.42,1.15c-2.37,0-4.16.57-5.19,1.58a3.48,3.48,0,0,0-1,2.56,3.28,3.28,0,0,0,3.48,3.29,4.07,4.07,0,0,0,3-1.23l.13.84a.17.17,0,0,0,.18.15h2.38a.17.17,0,0,0,.14-.06.2.2,0,0,0,0-.15A14.73,14.73,0,0,1,291.17,303.05Zm-2.93-2.42v1.27a1.6,1.6,0,0,1-.07.52,2,2,0,0,1-1.89,1.32,1.22,1.22,0,0,1-1.33-1.33,1.33,1.33,0,0,1,.41-1A4.13,4.13,0,0,1,288.24,300.63Z"/><path d="M299.78,294.71a4.26,4.26,0,0,0-3.48,1.57l-.09-1.17a.18.18,0,0,0-.18-.17h-2.32a.16.16,0,0,0-.13.06.13.13,0,0,0-.05.13c.06,1.21.08,2.31.08,3.45v11.24a.18.18,0,0,0,.18.18h2.64a.18.18,0,0,0,.18-.18v-4.93a3.79,3.79,0,0,0,2.8,1.1c2.38,0,4.93-1.81,4.93-5.79C304.34,297,302.43,294.71,299.78,294.71Zm1.53,5.61c0,2-.95,3.27-2.48,3.27a2.23,2.23,0,0,1-2.15-1.71,3.64,3.64,0,0,1-.07-.68v-1.61a2.64,2.64,0,0,1,.09-.63,2.31,2.31,0,0,1,2.19-1.81C300.67,297.15,301.31,298.86,301.31,300.32Z"/><path d="M312.34,294.71a4.25,4.25,0,0,0-3.48,1.57l-.1-1.17a.18.18,0,0,0-.18-.17h-2.32a.18.18,0,0,0-.13.06.19.19,0,0,0-.05.13c.06,1.21.09,2.31.09,3.45v11.24a.18.18,0,0,0,.18.18H309a.18.18,0,0,0,.18-.18v-4.93A3.75,3.75,0,0,0,312,306c2.37,0,4.93-1.81,4.93-5.79C316.9,297,315,294.71,312.34,294.71Zm1.52,5.61c0,2-.95,3.27-2.48,3.27a2.23,2.23,0,0,1-2.14-1.71,3,3,0,0,1-.07-.68v-1.61a2.64,2.64,0,0,1,.09-.63,2.29,2.29,0,0,1,2.18-1.81C313.23,297.15,313.86,298.86,313.86,300.32Z"/><path d="M338.8,294.94h-2.59a.19.19,0,0,0-.18.14l-1.16,4.64c-.24,1-.42,1.89-.56,2.67-.18-.83-.4-1.69-.67-2.68l-1.3-4.64a.18.18,0,0,0-.17-.13H330a.17.17,0,0,0-.17.13l-1.37,4.76,0,.11c-.23.81-.46,1.65-.65,2.49-.15-.79-.33-1.64-.54-2.61l-1.09-4.74a.19.19,0,0,0-.18-.14h-2.69a.21.21,0,0,0-.15.07.23.23,0,0,0,0,.16l3.1,10.45a.17.17,0,0,0,.17.13h2.46a.17.17,0,0,0,.17-.13l1.33-4.25c.28-.92.48-1.72.65-2.56.18.88.38,1.68.64,2.56l1.25,4.25a.17.17,0,0,0,.17.13h2.46a.19.19,0,0,0,.17-.13L339,295.18a.18.18,0,0,0,0-.16A.19.19,0,0,0,338.8,294.94Z"/><path d="M348.65,303.05v-3.76c0-2.09-.78-4.58-4.48-4.58a7.83,7.83,0,0,0-3.89,1,.17.17,0,0,0-.07.21l.52,1.71a.22.22,0,0,0,.11.12.18.18,0,0,0,.16,0,5.37,5.37,0,0,1,2.71-.75h0a2,2,0,0,1,1.5.48,1.57,1.57,0,0,1,.42,1.15c-2.37,0-4.16.57-5.18,1.58a3.49,3.49,0,0,0-1,2.56,3.28,3.28,0,0,0,3.48,3.29,4,4,0,0,0,3-1.23l.13.84a.18.18,0,0,0,.18.15h2.39a.16.16,0,0,0,.13-.06.17.17,0,0,0,0-.15A15.87,15.87,0,0,1,348.65,303.05Zm-2.93-2.42v1.27a2,2,0,0,1-.06.52,2,2,0,0,1-1.9,1.32,1.22,1.22,0,0,1-1.33-1.33,1.37,1.37,0,0,1,.41-1A4.16,4.16,0,0,1,345.72,300.63Z"/><path d="M355.32,299.16c-1.34-.48-1.71-.76-1.71-1.29s.5-.93,1.29-.93a4.64,4.64,0,0,1,2.12.58.18.18,0,0,0,.16,0,.15.15,0,0,0,.1-.12l.52-1.85a.18.18,0,0,0-.08-.21,6.32,6.32,0,0,0-2.86-.64c-2.44,0-4.15,1.41-4.15,3.44,0,1,.51,2.37,3,3.23,1.36.48,1.6.82,1.6,1.35,0,.86-.94,1-1.5,1a5.63,5.63,0,0,1-2.57-.73.2.2,0,0,0-.17,0,.17.17,0,0,0-.1.12l-.53,1.93a.16.16,0,0,0,.08.2,6.93,6.93,0,0,0,3.27.76c2.73,0,4.43-1.33,4.43-3.47C358.22,300.9,357.32,299.87,355.32,299.16Z"/><path d="M361.49,302.28a1.75,1.75,0,0,0-1.8,1.86,1.84,1.84,0,0,0,.51,1.33,1.81,1.81,0,0,0,1.29.52,1.75,1.75,0,0,0,1.8-1.85A1.77,1.77,0,0,0,361.49,302.28Z"/><path d="M360.49,301.28h2a.18.18,0,0,0,.18-.18l.4-10A.21.21,0,0,0,363,291a.18.18,0,0,0-.13-.06h-2.8a.16.16,0,0,0-.13.06.21.21,0,0,0,0,.13l.4,10A.18.18,0,0,0,360.49,301.28Z"/><path class="cls-1" d="M355.15,155.17c.09-.1,2.29-2.52,2.4-5l0-.52c.12-2.2.27-5.21-1.49-14.17l0-.21A16.13,16.13,0,0,0,349.2,124l-.29-.2-.2-.3a73.07,73.07,0,0,0-27.08-24.3,66.42,66.42,0,0,0-15.33-6,.67.67,0,0,0-.78.83l4.35,15.55-2.88-.5a58.8,58.8,0,0,0-10-.84c-17.64,0-38.08,7.42-50.83,25.58-8.62,12.29-11.48,30.77-7.29,47.1,3.5,13.66,11.52,24.18,22.56,29.6a38.75,38.75,0,0,0,17,4.44,24.3,24.3,0,0,0,15.81-5.58c6.67-5.56,10.24-14.85,8.32-21.6a20.5,20.5,0,0,0-2.81-6L297,177.91l11.44,2.51a.65.65,0,0,0,.78-.48l1.88-6.93,1.79-6,1.53.18a105.34,105.34,0,0,0,11.76.72,59.38,59.38,0,0,0,17-2.2c6.1-1.85,8.48-4.19,8.57-4.29a.69.69,0,0,0,.19-.58l-.69-4.05,3.59-1.42A.81.81,0,0,0,355.15,155.17Z"/><path class="cls-2" d="M391.56,175.82a5.34,5.34,0,1,0-5.45-5.38A5.38,5.38,0,0,0,391.56,175.82Z"/><path d="M326.57,169.83a111,111,0,0,1-14.36-1,2.56,2.56,0,0,1,.66-5.07c14.84,1.93,24.28.53,29.58-1a25.43,25.43,0,0,0,6.95-3l-.54-3.14a2.57,2.57,0,0,1,1.58-2.81l3.56-1.41a6,6,0,0,0,1.26-2.63c0-.18,0-.36,0-.55.11-2.08.25-4.93-1.48-13.76a2.55,2.55,0,1,1,5-1c1.86,9.44,1.7,12.65,1.58,15l0,.52c-.14,3.13-2.65,6-2.93,6.27a2.54,2.54,0,0,1-.94.64l-2.24.89.44,2.62a2.56,2.56,0,0,1-.7,2.23c-.29.29-3,2.86-9.52,4.84A62.08,62.08,0,0,1,326.57,169.83Zm29-15.28Z"/><path d="M349.22,126.11a2.55,2.55,0,0,1-2.15-1.18,71,71,0,0,0-26.51-24,73.45,73.45,0,0,0-10.71-4.64l7,24.89a2.55,2.55,0,0,1-4.92,1.37l-8.2-29.32a2.55,2.55,0,0,1,3-3.18,69.31,69.31,0,0,1,16.09,6.27,76.26,76.26,0,0,1,28.58,25.84,2.55,2.55,0,0,1-.76,3.53A2.61,2.61,0,0,1,349.22,126.11Z"/><circle class="cls-2" cx="343.95" cy="132.71" r="10.28"/><path d="M344,145.55h-.35a12.84,12.84,0,1,1,9.18-3.53h0A12.73,12.73,0,0,1,344,145.55Zm0-20.56a7.73,7.73,0,1,0,5.33,13.33A7.73,7.73,0,0,0,344.15,125ZM351,140.17Z"/><circle cx="348.75" cy="136.73" r="3.32"/><path d="M356.3,137.53a2.55,2.55,0,0,1-2.52-2.19c-.84-5.86-4.44-9.86-10.69-11.87a30.49,30.49,0,0,0-9.95-1.33,2.56,2.56,0,0,1-.34-5.1,35,35,0,0,1,11.71,1.52c8.24,2.6,13.19,8.16,14.32,16.06a2.56,2.56,0,0,1-2.16,2.89Z"/><path d="M347.77,159.2a21.51,21.51,0,0,1-12.31-4,2.56,2.56,0,0,1,2.91-4.21c6.52,4.51,12,2.88,12.23,2.81h0l1.6,4.85A15,15,0,0,1,347.77,159.2Z"/><path d="M369.87,168c-10.33,0-19.89-9.61-20.31-10a2.55,2.55,0,1,1,3.64-3.58c.09.09,9.29,9.31,17.76,8.46.93-.09,1.5-.47,1.69-1.12a1.57,1.57,0,0,0-.36-1.57c-.37-.3-1.14-.17-2.07.35a2.56,2.56,0,0,1-2.49-4.47c4-2.25,6.76-.66,7.75.13a6.61,6.61,0,0,1,2.07,7,6.74,6.74,0,0,1-6.08,4.76C370.94,168,370.4,168,369.87,168Z"/><path class="cls-2" d="M282.78,130.54s12.72-8,10.31-11.24-19.26.63-19.46-3.67-14.46,6.8-14.46,6.8c3,5,19.62-1.5,20.36,1.82s-11.38,7.77-9.16,12c1.83,3.52,17.17,1,18.12,3.47s-2.46,6.72-2.46,6.72l.46,7.05s13.56-16.38,12.12-19.39C296.7,130.17,282.78,130.54,282.78,130.54Z"/><path class="cls-2" d="M253.48,180.59s-3.08-13.77-6.11-13.77c-3.57,0-6,7.77-7.86,7.12s1.5,13.3,2.88,12.81c2.05-.74,4.44-8.89,4.44-8.89s3.27,10.72,6.06,11.41c1.93.47,5.14-7.07,7.13-7s3.69,12,3.69,12l3.51.64s.11-18.28-6.55-19.23C258.47,175.38,253.48,180.59,253.48,180.59Z"/><path class="cls-2" d="M259.19,152.36s5.06-12.53,1.54-15c-3.79-2.66-17.61,9.82-16.78-.39.33-4.13-4.93,16.14-4.93,16.14,1.36,1.68,13-7.48,14.87-5.94,1.49,1.21-4.7,9.44-1.95,11.72,2.56,2.14,14.13-2.34,15.13-.87.86,1.27-2.82,8.33-2.82,8.33l2.56,2.1s9.84-13.34,7.26-16C271.75,150,259.19,152.36,259.19,152.36Z"/><path d="M308.65,182.61a2.57,2.57,0,0,1-.55-.06l-17.41-3.81a2.55,2.55,0,0,1,1.09-5l15,3.29.77-2.87c-6.49-3.8-20-10.93-25.8-10.35-7.61.76-13.63,5.73-13.68,5.78a2.56,2.56,0,0,1-3.29-3.91,33.28,33.28,0,0,1,16.46-7c4.08-.4,10.32,1.48,19.09,5.78,6.23,3.05,11.31,6.15,11.53,6.28a2.58,2.58,0,0,1,1.13,2.85l-1.92,7.08A2.54,2.54,0,0,1,308.65,182.61Z"/><path d="M296.81,177.46l-.44,2a18.78,18.78,0,0,1,5.41,9c2,7.13-2.4,19-12.65,24.19l-2.63,12a5.83,5.83,0,0,0,4.46,7,5.38,5.38,0,0,0,1.25.14,5.83,5.83,0,0,0,5.7-4.59L308.22,180Z"/><path d="M310.56,175.53a2.56,2.56,0,0,1-1.26-.34c-1.91-1.09-18.74-10.73-22.19-14.6l-.45-.49c-2.61-2.9-5.57-6.18-1-13.14.85-1.3,2.83-3.43,10.15-6.94,3.81-1.83,7.25-3.15,7.39-3.21a2.55,2.55,0,1,1,1.83,4.77c-6.25,2.41-13.81,6.22-15.11,8.19-1.19,1.81-1.7,3.16-1.52,4a7.72,7.72,0,0,0,2,2.87l.47.52c1.91,2.14,11.18,7.9,18.11,11.95l.63-2.11-12.6-12.56a2.55,2.55,0,0,1-.72-2.21,2.53,2.53,0,0,1,1.36-1.88l10.51-5.33a2.56,2.56,0,0,1,2.31,4.56l-7.36,3.73,11.19,11.15A2.54,2.54,0,0,1,315,167l-2,6.68a2.53,2.53,0,0,1-1.5,1.64A2.41,2.41,0,0,1,310.56,175.53Z"/><path d="M277.86,217.78c-5.07,0-11.1-1.27-18.11-4.71-11.75-5.78-20.26-16.92-24-31.37-4.4-17.14-1.37-36.57,7.71-49.51,16.63-23.71,46.83-30.56,68.06-25.07a2.56,2.56,0,1,1-1.27,4.95c-19.54-5-47.31,1.25-62.61,23.05-8.26,11.77-11,29.56-6.94,45.31,3.33,13,10.88,22.95,21.27,28,11.77,5.78,22.39,5.52,29.89-.75,6.44-5.37,8.84-13.69,7.44-18.62-1.45-5.09-5.35-11.28-15.72-12a15.5,15.5,0,0,0-13.07,6.06,10.83,10.83,0,0,0-1.68,10.46,9.71,9.71,0,0,0,6.79,6.48,11.59,11.59,0,0,0,9.94-2.07c2.6-2.22,3.22-5.37,2.49-7.34-.63-1.7-2.19-2.6-4.51-2.6h0c-2.89,0-4.28,1-4.34,1.68,0,.42.45.94,1.45,1.13a2.55,2.55,0,1,1-.94,5c-3.53-.66-5.89-3.45-5.6-6.62.27-2.9,2.89-6.3,9.41-6.32,4.46,0,8,2.21,9.34,5.93,1.59,4.3,0,9.65-4,13a16.78,16.78,0,0,1-14.56,3.14,14.9,14.9,0,0,1-10.29-9.67,16,16,0,0,1,2.39-15.28,20.73,20.73,0,0,1,17.49-8.1,22.85,22.85,0,0,1,13.76,5.16,21.29,21.29,0,0,1,6.54,10.49c2.15,7.54-1.75,17.84-9.07,23.95A26.64,26.64,0,0,1,277.86,217.78Z"/></svg>